<mxfile host="app.diagrams.net" modified="2022-03-25T23:21:51.362Z" agent="5.0 (Windows NT 10.0; Win64; x64) AppleWebKit/537.36 (KHTML, like Gecko) Chrome/99.0.4844.51 Safari/537.36 Edg/99.0.1150.39" etag="Xjowi2aSKLzQ0_hy1yRh" version="17.2.4" type="github">
  <diagram id="Xbdm1NHUXZNQph0ybp81" name="Page-1">
    <mxGraphModel dx="868" dy="450" grid="1" gridSize="10" guides="1" tooltips="1" connect="1" arrows="1" fold="1" page="1" pageScale="1" pageWidth="827" pageHeight="1169" math="0" shadow="0">
      <root>
        <mxCell id="0" />
        <mxCell id="1" parent="0" />
        <mxCell id="9eWRT6IDZDIMwClfeAxV-72" value="" style="rhombus;whiteSpace=wrap;html=1;strokeColor=#666666;fillColor=#f5f5f5;gradientColor=#b3b3b3;" vertex="1" parent="1">
          <mxGeometry x="1410" y="480" width="200" height="100" as="geometry" />
        </mxCell>
        <mxCell id="9eWRT6IDZDIMwClfeAxV-13" value="" style="shape=parallelogram;perimeter=parallelogramPerimeter;whiteSpace=wrap;html=1;fixedSize=1;fillColor=#d5e8d4;strokeColor=#82b366;gradientColor=#97d077;" vertex="1" parent="1">
          <mxGeometry x="200" y="440" width="160" height="80" as="geometry" />
        </mxCell>
        <mxCell id="9eWRT6IDZDIMwClfeAxV-1" value="" style="ellipse;whiteSpace=wrap;html=1;fillColor=#fff2cc;gradientColor=#ffd966;strokeColor=#d6b656;" vertex="1" parent="1">
          <mxGeometry x="30" y="440" width="120" height="80" as="geometry" />
        </mxCell>
        <mxCell id="9eWRT6IDZDIMwClfeAxV-2" value="Inicia-se perguntando: &quot;&lt;i&gt;&lt;b&gt;Qual é a data do evento?&lt;/b&gt;&lt;/i&gt;&quot;" style="text;html=1;strokeColor=none;fillColor=none;align=center;verticalAlign=middle;whiteSpace=wrap;rounded=0;" vertex="1" parent="1">
          <mxGeometry x="40" y="465" width="100" height="30" as="geometry" />
        </mxCell>
        <mxCell id="9eWRT6IDZDIMwClfeAxV-6" value="" style="endArrow=none;html=1;rounded=0;entryX=0;entryY=0.5;entryDx=0;entryDy=0;" edge="1" parent="1" target="9eWRT6IDZDIMwClfeAxV-13">
          <mxGeometry width="50" height="50" relative="1" as="geometry">
            <mxPoint x="150" y="479.5" as="sourcePoint" />
            <mxPoint x="190.58746736292437" y="479.6083550913838" as="targetPoint" />
            <Array as="points">
              <mxPoint x="170" y="479.5" />
            </Array>
          </mxGeometry>
        </mxCell>
        <mxCell id="9eWRT6IDZDIMwClfeAxV-9" value="Usuário entra com a data do evento." style="text;html=1;strokeColor=none;fillColor=none;align=center;verticalAlign=middle;whiteSpace=wrap;rounded=0;" vertex="1" parent="1">
          <mxGeometry x="225" y="465" width="110" height="30" as="geometry" />
        </mxCell>
        <mxCell id="9eWRT6IDZDIMwClfeAxV-14" value="" style="endArrow=none;html=1;rounded=0;" edge="1" parent="1">
          <mxGeometry width="50" height="50" relative="1" as="geometry">
            <mxPoint x="350" y="480" as="sourcePoint" />
            <mxPoint x="430" y="480" as="targetPoint" />
          </mxGeometry>
        </mxCell>
        <mxCell id="9eWRT6IDZDIMwClfeAxV-15" value="" style="rhombus;whiteSpace=wrap;html=1;fillColor=#f5f5f5;strokeColor=#666666;gradientColor=#b3b3b3;" vertex="1" parent="1">
          <mxGeometry x="420" y="430" width="160" height="100" as="geometry" />
        </mxCell>
        <mxCell id="9eWRT6IDZDIMwClfeAxV-16" value="" style="endArrow=none;html=1;rounded=0;entryX=0;entryY=1;entryDx=0;entryDy=0;" edge="1" parent="1" target="9eWRT6IDZDIMwClfeAxV-19">
          <mxGeometry width="50" height="50" relative="1" as="geometry">
            <mxPoint x="530" y="450" as="sourcePoint" />
            <mxPoint x="580" y="400" as="targetPoint" />
          </mxGeometry>
        </mxCell>
        <mxCell id="9eWRT6IDZDIMwClfeAxV-18" value="" style="endArrow=none;html=1;rounded=0;entryX=0;entryY=0;entryDx=0;entryDy=0;" edge="1" parent="1" target="9eWRT6IDZDIMwClfeAxV-22">
          <mxGeometry width="50" height="50" relative="1" as="geometry">
            <mxPoint x="530" y="510" as="sourcePoint" />
            <mxPoint x="580" y="565" as="targetPoint" />
          </mxGeometry>
        </mxCell>
        <mxCell id="9eWRT6IDZDIMwClfeAxV-19" value="" style="whiteSpace=wrap;html=1;aspect=fixed;fillColor=#dae8fc;strokeColor=#6c8ebf;gradientColor=#7ea6e0;" vertex="1" parent="1">
          <mxGeometry x="580" y="310" width="80" height="80" as="geometry" />
        </mxCell>
        <mxCell id="9eWRT6IDZDIMwClfeAxV-20" value="Não" style="text;html=1;strokeColor=none;fillColor=none;align=center;verticalAlign=middle;whiteSpace=wrap;rounded=0;" vertex="1" parent="1">
          <mxGeometry x="590" y="335" width="60" height="30" as="geometry" />
        </mxCell>
        <mxCell id="9eWRT6IDZDIMwClfeAxV-21" value="Data do evento é válida?" style="text;html=1;strokeColor=none;fillColor=none;align=center;verticalAlign=middle;whiteSpace=wrap;rounded=0;" vertex="1" parent="1">
          <mxGeometry x="450" y="450" width="100" height="60" as="geometry" />
        </mxCell>
        <mxCell id="9eWRT6IDZDIMwClfeAxV-65" style="edgeStyle=orthogonalEdgeStyle;rounded=0;orthogonalLoop=1;jettySize=auto;html=1;" edge="1" parent="1">
          <mxGeometry relative="1" as="geometry">
            <mxPoint x="580" y="620" as="targetPoint" />
            <mxPoint x="580" y="620" as="sourcePoint" />
          </mxGeometry>
        </mxCell>
        <mxCell id="9eWRT6IDZDIMwClfeAxV-22" value="" style="whiteSpace=wrap;html=1;aspect=fixed;fillColor=#dae8fc;strokeColor=#6c8ebf;gradientColor=#7ea6e0;" vertex="1" parent="1">
          <mxGeometry x="580" y="570" width="80" height="80" as="geometry" />
        </mxCell>
        <mxCell id="9eWRT6IDZDIMwClfeAxV-23" value="Sim" style="text;html=1;strokeColor=none;fillColor=none;align=center;verticalAlign=middle;whiteSpace=wrap;rounded=0;" vertex="1" parent="1">
          <mxGeometry x="600" y="592.5" width="40" height="35" as="geometry" />
        </mxCell>
        <mxCell id="9eWRT6IDZDIMwClfeAxV-25" value="" style="endArrow=none;html=1;rounded=0;" edge="1" parent="1">
          <mxGeometry width="50" height="50" relative="1" as="geometry">
            <mxPoint x="660" y="609.5" as="sourcePoint" />
            <mxPoint x="740" y="609.5" as="targetPoint" />
          </mxGeometry>
        </mxCell>
        <mxCell id="9eWRT6IDZDIMwClfeAxV-29" value="" style="endArrow=none;html=1;rounded=0;entryX=0;entryY=0.5;entryDx=0;entryDy=0;exitX=1;exitY=0.5;exitDx=0;exitDy=0;entryPerimeter=0;" edge="1" parent="1" source="9eWRT6IDZDIMwClfeAxV-19" target="9eWRT6IDZDIMwClfeAxV-51">
          <mxGeometry width="50" height="50" relative="1" as="geometry">
            <mxPoint x="690" y="350" as="sourcePoint" />
            <mxPoint x="760" y="345" as="targetPoint" />
          </mxGeometry>
        </mxCell>
        <mxCell id="9eWRT6IDZDIMwClfeAxV-32" value="" style="shape=display;whiteSpace=wrap;html=1;fillColor=#f8cecc;strokeColor=#b85450;gradientColor=#ea6b66;" vertex="1" parent="1">
          <mxGeometry x="740" y="570" width="150" height="80" as="geometry" />
        </mxCell>
        <mxCell id="9eWRT6IDZDIMwClfeAxV-34" value="" style="shape=parallelogram;perimeter=parallelogramPerimeter;whiteSpace=wrap;html=1;fixedSize=1;fillColor=#d5e8d4;strokeColor=#82b366;gradientColor=#97d077;" vertex="1" parent="1">
          <mxGeometry x="980" y="565" width="150" height="90" as="geometry" />
        </mxCell>
        <mxCell id="9eWRT6IDZDIMwClfeAxV-37" value="" style="rhombus;whiteSpace=wrap;html=1;fillColor=#f5f5f5;strokeColor=#666666;gradientColor=#b3b3b3;" vertex="1" parent="1">
          <mxGeometry x="975" y="380" width="160" height="110" as="geometry" />
        </mxCell>
        <mxCell id="9eWRT6IDZDIMwClfeAxV-39" value="" style="endArrow=none;html=1;rounded=0;entryX=0;entryY=0.5;entryDx=0;entryDy=0;exitX=1;exitY=0;exitDx=0;exitDy=0;" edge="1" parent="1" source="9eWRT6IDZDIMwClfeAxV-37" target="9eWRT6IDZDIMwClfeAxV-41">
          <mxGeometry width="50" height="50" relative="1" as="geometry">
            <mxPoint x="1150" y="410" as="sourcePoint" />
            <mxPoint x="1190" y="380" as="targetPoint" />
          </mxGeometry>
        </mxCell>
        <mxCell id="9eWRT6IDZDIMwClfeAxV-40" value="" style="endArrow=none;html=1;rounded=0;entryX=1;entryY=1;entryDx=0;entryDy=0;exitX=0;exitY=0.5;exitDx=0;exitDy=0;" edge="1" parent="1" source="9eWRT6IDZDIMwClfeAxV-42" target="9eWRT6IDZDIMwClfeAxV-37">
          <mxGeometry width="50" height="50" relative="1" as="geometry">
            <mxPoint x="1190" y="500" as="sourcePoint" />
            <mxPoint x="1210" y="465" as="targetPoint" />
          </mxGeometry>
        </mxCell>
        <mxCell id="9eWRT6IDZDIMwClfeAxV-41" value="" style="whiteSpace=wrap;html=1;aspect=fixed;fillColor=#dae8fc;strokeColor=#6c8ebf;gradientColor=#7ea6e0;" vertex="1" parent="1">
          <mxGeometry x="1250" y="300" width="80" height="80" as="geometry" />
        </mxCell>
        <mxCell id="9eWRT6IDZDIMwClfeAxV-42" value="" style="whiteSpace=wrap;html=1;aspect=fixed;fillColor=#dae8fc;strokeColor=#6c8ebf;gradientColor=#7ea6e0;" vertex="1" parent="1">
          <mxGeometry x="1250" y="490" width="80" height="80" as="geometry" />
        </mxCell>
        <mxCell id="9eWRT6IDZDIMwClfeAxV-43" value="" style="shape=display;whiteSpace=wrap;html=1;fillColor=#f8cecc;strokeColor=#b85450;gradientColor=#ea6b66;" vertex="1" parent="1">
          <mxGeometry x="1420" y="305" width="150" height="70" as="geometry" />
        </mxCell>
        <mxCell id="9eWRT6IDZDIMwClfeAxV-48" value="" style="shape=display;whiteSpace=wrap;html=1;fillColor=#f8cecc;strokeColor=#b85450;gradientColor=#ea6b66;" vertex="1" parent="1">
          <mxGeometry x="2100" y="580" width="210" height="80" as="geometry" />
        </mxCell>
        <mxCell id="9eWRT6IDZDIMwClfeAxV-51" value="" style="shape=display;whiteSpace=wrap;html=1;fillColor=#f8cecc;strokeColor=#b85450;gradientColor=#ea6b66;" vertex="1" parent="1">
          <mxGeometry x="760" y="312.5" width="160" height="75" as="geometry" />
        </mxCell>
        <mxCell id="9eWRT6IDZDIMwClfeAxV-52" value="Exibe a mensagem: &quot;&lt;i&gt;&lt;b&gt;Data inválida&lt;/b&gt;&lt;/i&gt;&quot;" style="text;html=1;strokeColor=none;fillColor=none;align=center;verticalAlign=middle;whiteSpace=wrap;rounded=0;" vertex="1" parent="1">
          <mxGeometry x="790" y="335" width="120" height="30" as="geometry" />
        </mxCell>
        <mxCell id="9eWRT6IDZDIMwClfeAxV-53" value="Exibe a mensagem:&lt;br&gt;&quot;&lt;i&gt;&lt;b&gt;Informe a sua idade&lt;/b&gt;&lt;/i&gt;&quot;" style="text;html=1;strokeColor=none;fillColor=none;align=center;verticalAlign=middle;whiteSpace=wrap;rounded=0;" vertex="1" parent="1">
          <mxGeometry x="760" y="597.5" width="130" height="25" as="geometry" />
        </mxCell>
        <mxCell id="9eWRT6IDZDIMwClfeAxV-54" value="Usuário digita sua idade" style="text;html=1;strokeColor=none;fillColor=none;align=center;verticalAlign=middle;whiteSpace=wrap;rounded=0;" vertex="1" parent="1">
          <mxGeometry x="1015" y="600" width="90" height="30" as="geometry" />
        </mxCell>
        <mxCell id="9eWRT6IDZDIMwClfeAxV-55" value="Idade do usuário é válida?" style="text;html=1;strokeColor=none;fillColor=none;align=center;verticalAlign=middle;whiteSpace=wrap;rounded=0;" vertex="1" parent="1">
          <mxGeometry x="1005" y="420" width="100" height="30" as="geometry" />
        </mxCell>
        <mxCell id="9eWRT6IDZDIMwClfeAxV-56" value="Não" style="text;html=1;strokeColor=none;fillColor=none;align=center;verticalAlign=middle;whiteSpace=wrap;rounded=0;" vertex="1" parent="1">
          <mxGeometry x="1260" y="325" width="60" height="30" as="geometry" />
        </mxCell>
        <mxCell id="9eWRT6IDZDIMwClfeAxV-57" value="Sim" style="text;html=1;strokeColor=none;fillColor=none;align=center;verticalAlign=middle;whiteSpace=wrap;rounded=0;" vertex="1" parent="1">
          <mxGeometry x="1260" y="515" width="60" height="30" as="geometry" />
        </mxCell>
        <mxCell id="9eWRT6IDZDIMwClfeAxV-58" value="" style="endArrow=none;html=1;rounded=0;" edge="1" parent="1">
          <mxGeometry width="50" height="50" relative="1" as="geometry">
            <mxPoint x="1330" y="530" as="sourcePoint" />
            <mxPoint x="1410" y="530" as="targetPoint" />
          </mxGeometry>
        </mxCell>
        <mxCell id="9eWRT6IDZDIMwClfeAxV-59" value="" style="endArrow=none;html=1;rounded=0;entryX=0;entryY=0.5;entryDx=0;entryDy=0;entryPerimeter=0;exitX=1;exitY=0.5;exitDx=0;exitDy=0;" edge="1" parent="1" source="9eWRT6IDZDIMwClfeAxV-41" target="9eWRT6IDZDIMwClfeAxV-43">
          <mxGeometry width="50" height="50" relative="1" as="geometry">
            <mxPoint x="1330" y="340" as="sourcePoint" />
            <mxPoint x="1380" y="290" as="targetPoint" />
          </mxGeometry>
        </mxCell>
        <mxCell id="9eWRT6IDZDIMwClfeAxV-60" value="O evento tem menos de 100 pessoas?" style="text;html=1;strokeColor=none;fillColor=none;align=center;verticalAlign=middle;whiteSpace=wrap;rounded=0;" vertex="1" parent="1">
          <mxGeometry x="1442.5" y="515" width="135" height="30" as="geometry" />
        </mxCell>
        <mxCell id="9eWRT6IDZDIMwClfeAxV-61" value="" style="endArrow=none;html=1;rounded=0;entryX=0;entryY=0.5;entryDx=0;entryDy=0;entryPerimeter=0;startArrow=none;" edge="1" parent="1" source="9eWRT6IDZDIMwClfeAxV-68" target="9eWRT6IDZDIMwClfeAxV-48">
          <mxGeometry width="50" height="50" relative="1" as="geometry">
            <mxPoint x="1610" y="530" as="sourcePoint" />
            <mxPoint x="1660" y="480" as="targetPoint" />
          </mxGeometry>
        </mxCell>
        <mxCell id="9eWRT6IDZDIMwClfeAxV-62" value="Exibe a mensagem: &quot;&lt;b&gt;&lt;i&gt;Cadastro realizado com sucesso!&quot;&lt;/i&gt;&lt;/b&gt;" style="text;html=1;strokeColor=none;fillColor=none;align=center;verticalAlign=middle;whiteSpace=wrap;rounded=0;" vertex="1" parent="1">
          <mxGeometry x="2150" y="605" width="140" height="30" as="geometry" />
        </mxCell>
        <mxCell id="9eWRT6IDZDIMwClfeAxV-63" value="Exibe a mensagem:&lt;br&gt;&quot;&lt;b&gt;&lt;i&gt;Idade inválida&quot;&lt;/i&gt;&lt;/b&gt;" style="text;html=1;strokeColor=none;fillColor=none;align=center;verticalAlign=middle;whiteSpace=wrap;rounded=0;" vertex="1" parent="1">
          <mxGeometry x="1455" y="325" width="110" height="30" as="geometry" />
        </mxCell>
        <mxCell id="9eWRT6IDZDIMwClfeAxV-66" value="" style="endArrow=none;html=1;rounded=0;entryX=0.5;entryY=1;entryDx=0;entryDy=0;exitX=0.5;exitY=0;exitDx=0;exitDy=0;" edge="1" parent="1" source="9eWRT6IDZDIMwClfeAxV-34" target="9eWRT6IDZDIMwClfeAxV-37">
          <mxGeometry width="50" height="50" relative="1" as="geometry">
            <mxPoint x="1060" y="560" as="sourcePoint" />
            <mxPoint x="1110" y="520" as="targetPoint" />
          </mxGeometry>
        </mxCell>
        <mxCell id="9eWRT6IDZDIMwClfeAxV-67" value="" style="endArrow=none;html=1;rounded=0;entryX=0;entryY=0.5;entryDx=0;entryDy=0;" edge="1" parent="1" target="9eWRT6IDZDIMwClfeAxV-34">
          <mxGeometry width="50" height="50" relative="1" as="geometry">
            <mxPoint x="890" y="610" as="sourcePoint" />
            <mxPoint x="940" y="560" as="targetPoint" />
          </mxGeometry>
        </mxCell>
        <mxCell id="9eWRT6IDZDIMwClfeAxV-68" value="" style="shape=parallelogram;perimeter=parallelogramPerimeter;whiteSpace=wrap;html=1;fixedSize=1;strokeColor=#82b366;fillColor=#d5e8d4;gradientColor=#97d077;" vertex="1" parent="1">
          <mxGeometry x="1830" y="580" width="190" height="80" as="geometry" />
        </mxCell>
        <mxCell id="9eWRT6IDZDIMwClfeAxV-71" value="Lista os participantes do evento" style="text;html=1;strokeColor=none;fillColor=none;align=center;verticalAlign=middle;whiteSpace=wrap;rounded=0;" vertex="1" parent="1">
          <mxGeometry x="1865" y="605" width="120" height="30" as="geometry" />
        </mxCell>
        <mxCell id="9eWRT6IDZDIMwClfeAxV-74" value="Sim" style="whiteSpace=wrap;html=1;aspect=fixed;strokeColor=#6c8ebf;fillColor=#dae8fc;gradientColor=#7ea6e0;" vertex="1" parent="1">
          <mxGeometry x="1650" y="580" width="80" height="80" as="geometry" />
        </mxCell>
        <mxCell id="9eWRT6IDZDIMwClfeAxV-75" value="" style="endArrow=none;html=1;rounded=0;exitX=0;exitY=0.5;exitDx=0;exitDy=0;entryX=1;entryY=1;entryDx=0;entryDy=0;" edge="1" parent="1" source="9eWRT6IDZDIMwClfeAxV-74" target="9eWRT6IDZDIMwClfeAxV-72">
          <mxGeometry width="50" height="50" relative="1" as="geometry">
            <mxPoint x="1515" y="605" as="sourcePoint" />
            <mxPoint x="1565" y="555" as="targetPoint" />
          </mxGeometry>
        </mxCell>
        <mxCell id="9eWRT6IDZDIMwClfeAxV-76" value="" style="endArrow=none;html=1;rounded=0;" edge="1" parent="1" target="9eWRT6IDZDIMwClfeAxV-68">
          <mxGeometry width="50" height="50" relative="1" as="geometry">
            <mxPoint x="1730" y="622.5" as="sourcePoint" />
            <mxPoint x="1780" y="572.5" as="targetPoint" />
          </mxGeometry>
        </mxCell>
        <mxCell id="9eWRT6IDZDIMwClfeAxV-77" value="" style="endArrow=none;html=1;rounded=0;entryX=0;entryY=0.5;entryDx=0;entryDy=0;exitX=1;exitY=0;exitDx=0;exitDy=0;" edge="1" parent="1" source="9eWRT6IDZDIMwClfeAxV-72" target="9eWRT6IDZDIMwClfeAxV-78">
          <mxGeometry width="50" height="50" relative="1" as="geometry">
            <mxPoint x="1550" y="500" as="sourcePoint" />
            <mxPoint x="1650" y="430" as="targetPoint" />
          </mxGeometry>
        </mxCell>
        <mxCell id="9eWRT6IDZDIMwClfeAxV-78" value="Não" style="whiteSpace=wrap;html=1;aspect=fixed;strokeColor=#6c8ebf;fillColor=#dae8fc;gradientColor=#7ea6e0;" vertex="1" parent="1">
          <mxGeometry x="1650" y="375" width="80" height="80" as="geometry" />
        </mxCell>
        <mxCell id="9eWRT6IDZDIMwClfeAxV-79" value="" style="shape=display;whiteSpace=wrap;html=1;strokeColor=#b85450;fillColor=#f8cecc;gradientColor=#ea6b66;" vertex="1" parent="1">
          <mxGeometry x="1830" y="375" width="160" height="80" as="geometry" />
        </mxCell>
        <mxCell id="9eWRT6IDZDIMwClfeAxV-80" value="" style="endArrow=none;html=1;rounded=0;entryX=0;entryY=0.5;entryDx=0;entryDy=0;entryPerimeter=0;exitX=1;exitY=0.5;exitDx=0;exitDy=0;" edge="1" parent="1" source="9eWRT6IDZDIMwClfeAxV-78" target="9eWRT6IDZDIMwClfeAxV-79">
          <mxGeometry width="50" height="50" relative="1" as="geometry">
            <mxPoint x="1730" y="420" as="sourcePoint" />
            <mxPoint x="1780" y="370" as="targetPoint" />
          </mxGeometry>
        </mxCell>
        <mxCell id="9eWRT6IDZDIMwClfeAxV-81" value="Exibe a mensagem: &lt;b&gt;&lt;i&gt;&quot;Evento cheio, cadastro inválido&quot;&lt;/i&gt;&lt;/b&gt;" style="text;html=1;strokeColor=none;fillColor=none;align=center;verticalAlign=middle;whiteSpace=wrap;rounded=0;" vertex="1" parent="1">
          <mxGeometry x="1860" y="400" width="120" height="30" as="geometry" />
        </mxCell>
      </root>
    </mxGraphModel>
  </diagram>
</mxfile>
